<svg width="500" height="467" version="1.1" xmlns="http://www.w3.org/2000/svg" desc="Created with imagetracer.js version 1.2.6" ><path fill="rgb(0,0,0)" stroke="rgb(0,0,0)" stroke-width="1" opacity="0" d="M 0 0 L 500 0 L 500 467 L 0 467 L 0 0 Z M 412 20 L 410 21 Q 403 25 401 34 L 408 71 L 410 72 L 426 69 L 447 63 L 455 53 L 455 45 L 452 40 Q 448 34 441 33 L 434 35 L 431 28 Q 427 18 412 20 Z M 395 72 L 393 73 L 362 125 Q 361 129 365 129 L 369 128 L 396 82 L 398 75 L 395 72 Z M 392 106 L 376 125 L 373 131 Q 374 134 379 133 L 395 113 L 396 109 Q 396 106 392 106 Z M 170 122 Q 145 126 130 140 Q 108 157 102 189 L 102 213 L 103 218 Q 107 235 116 247 L 230 366 L 251 385 L 381 251 Q 394 235 398 212 L 398 190 L 395 177 Q 389 160 379 149 Q 362 128 331 122 L 308 122 L 295 125 Q 276 132 264 144 L 250 162 L 243 152 Q 231 135 211 127 L 193 122 L 170 122 Z M 148 315 L 127 327 L 123 331 L 127 335 L 151 322 L 153 319 L 152 317 Q 151 314 148 315 Z M 157 323 L 112 357 Q 108 359 109 364 L 112 365 L 117 363 L 159 331 Q 162 330 161 324 L 157 323 Z " /><path fill="rgb(78,52,65)" stroke="rgb(78,52,65)" stroke-width="1" opacity="0.8392156862745098" d="M 394.5 72 L 398 74.5 L 396 81.5 L 369 128 L 364.5 129 Q 361.5 128.5 362 124.5 L 392.5 73 L 394.5 72 Z " /><path fill="rgb(78,52,65)" stroke="rgb(78,52,65)" stroke-width="1" opacity="0.8392156862745098" d="M 391.5 106 Q 395.5 105.5 396 108.5 L 395 112.5 L 378.5 133 Q 373.8 133.8 373 130.5 L 376 124.5 L 391.5 106 Z " /><path fill="rgb(78,52,65)" stroke="rgb(78,52,65)" stroke-width="1" opacity="0.8392156862745098" d="M 147.5 315 Q 151.3 314.3 152 316.5 L 153 318.5 L 150.5 322 L 126.5 335 L 123 330.5 L 126.5 327 L 147.5 315 Z " /><path fill="rgb(78,52,65)" stroke="rgb(78,52,65)" stroke-width="1" opacity="0.8392156862745098" d="M 156.5 323 L 161 324 Q 162.3 329.5 158.5 331 L 116.5 363 L 111.5 365 L 109 364 Q 107.8 358.5 111.5 357 L 156.5 323 Z " /><path fill="rgb(205,57,125)" stroke="rgb(205,57,125)" stroke-width="1" opacity="0.9921568627450981" d="M 411.5 20 Q 427 18 431 27.5 L 433.5 35 L 440.5 33 Q 448 34.5 452 39.5 L 455 44.5 L 455 52.5 L 446.5 63 L 425.5 69 L 409.5 72 L 408 70.5 L 401 33.5 Q 402.6 24.6 409.5 21 L 411.5 20 Z M 413 21 L 409 23 Q 403 27 402 35 L 410 71 L 441 64 L 448 61 Q 453 58 454 51 L 452 42 L 445 35 Q 435 34 431 36 Q 432 30 429 27 Q 425 19 413 21 Z " /><path fill="rgb(205,57,125)" stroke="rgb(205,57,125)" stroke-width="1" opacity="0.9921568627450981" d="M 169.5 122 L 192.5 122 L 210.5 127 Q 230.5 135.5 243 151.5 L 249.5 162 L 263.5 144 Q 276 131.5 294.5 125 L 307.5 122 L 330.5 122 Q 362.2 127.8 379 148.5 Q 389.5 160 395 176.5 L 398 189.5 L 398 211.5 Q 393.9 235.4 381 250.5 L 250.5 385 L 230 365.5 L 116 246.5 Q 106.9 234.6 103 217.5 L 102 212.5 L 102 188.5 Q 108.4 156.9 129.5 140 Q 144.7 126.2 169.5 122 Z M 170 123 Q 142 128 127 144 Q 108 161 103 191 L 103 212 L 105 222 Q 109 236 117 247 L 240 375 L 251 384 L 378 253 L 390 235 L 394 225 L 397 211 L 397 191 L 395 181 Q 390 164 381 153 Q 364 130 331 123 L 309 123 L 299 125 Q 281 130 270 140 Q 258 149 251 163 Q 252 165 249 164 L 247 159 L 241 151 Q 229 136 211 128 L 192 123 L 170 123 Z " /><path fill="rgb(205,58,125)" stroke="rgb(205,58,125)" stroke-width="1" opacity="1" d="M 412.5 21 Q 425.4 19.1 429 26.5 Q 432 29.8 431 36 Q 435.5 34 444.5 35 L 452 41.5 L 454 50.5 Q 452.9 57.9 447.5 61 L 440.5 64 L 410 71 L 402 34.5 Q 403.2 26.7 408.5 23 L 412.5 21 Z " /><path fill="rgb(205,58,125)" stroke="rgb(205,58,125)" stroke-width="1" opacity="1" d="M 169.5 123 L 191.5 123 L 210.5 128 Q 229 136 241 150.5 L 247 158.5 L 249 164 Q 251.7 165.1 251 162.5 Q 258 149 269.5 140 Q 281.5 130 298.5 125 L 308.5 123 L 330.5 123 Q 364 129.5 381 152.5 Q 390.4 164 395 180.5 L 397 190.5 L 397 210.5 L 394 224.5 L 390 234.5 L 378 252.5 L 250.5 384 L 240 374.5 L 117 246.5 Q 109.2 235.8 105 221.5 L 103 211.5 L 103 190.5 Q 108.3 160.8 126.5 144 Q 142.3 127.8 169.5 123 Z " /></svg>